<?xml version="1.0" encoding="UTF-8" standalone="no"?>
<!DOCTYPE svg PUBLIC "-//W3C//DTD SVG 1.1//EN" "http://www.w3.org/Graphics/SVG/1.1/DTD/svg11.dtd">
<svg width="100%" height="100%" viewBox="0 0 720 480" version="1.1" xmlns="http://www.w3.org/2000/svg" xmlns:xlink="http://www.w3.org/1999/xlink" xml:space="preserve" xmlns:serif="http://www.serif.com/" style="fill-rule:evenodd;clip-rule:evenodd;stroke-linejoin:round;stroke-miterlimit:2;">
    <g id="Curves" transform="matrix(1.13752,0,0,1.13587,-7.2845,-32.609)">
        <g transform="matrix(458.333,0,0,458.333,546.321,369.25)">
            <path d="M0.127,0.01C0.11,0.01 0.095,0.004 0.082,-0.008C0.069,-0.02 0.063,-0.035 0.063,-0.054C0.063,-0.075 0.071,-0.092 0.086,-0.106C0.1,-0.12 0.118,-0.127 0.138,-0.127C0.159,-0.127 0.175,-0.121 0.186,-0.109C0.197,-0.096 0.202,-0.081 0.202,-0.063C0.202,-0.041 0.195,-0.023 0.18,-0.01C0.165,0.003 0.148,0.01 0.127,0.01Z" style="fill-rule:nonzero;"/>
        </g>
        <g transform="matrix(1,0,0,1,-303,155.035)">
            <g transform="matrix(458.333,0,0,458.333,311.696,214.215)">
                <path d="M-0.006,0.137C0.023,0.128 0.05,0.113 0.073,0.091C0.096,0.068 0.113,0.041 0.124,0.008C0.133,-0.017 0.138,-0.047 0.141,-0.081C0.144,-0.114 0.145,-0.166 0.145,-0.236L0.145,-0.68L0.049,-0.693L0.049,-0.743L0.343,-0.743L0.343,-0.693L0.252,-0.68L0.252,-0.228C0.252,-0.175 0.251,-0.133 0.25,-0.101C0.249,-0.069 0.246,-0.042 0.241,-0.019C0.229,0.034 0.203,0.078 0.162,0.113C0.121,0.148 0.074,0.17 0.021,0.179L-0.006,0.137Z" style="fill-rule:nonzero;"/>
            </g>
            <g transform="matrix(458.333,0,0,458.333,474.863,214.215)">
                <path d="M-0.019,-0.743L0.252,-0.743L0.252,-0.693L0.158,-0.681L0.295,-0.215L0.324,-0.076L0.357,-0.215L0.472,-0.596L0.445,-0.681L0.374,-0.693L0.374,-0.743L0.655,-0.743L0.655,-0.693L0.557,-0.681L0.692,-0.215L0.726,-0.065L0.754,-0.215L0.88,-0.681L0.781,-0.693L0.781,-0.743L1.019,-0.743L1.019,-0.693L0.953,-0.681L0.754,0.005L0.656,0.005L0.503,-0.496L0.355,0.005L0.26,0.005L0.047,-0.68L-0.019,-0.693L-0.019,-0.743Z" style="fill-rule:nonzero;"/>
            </g>
        </g>
    </g>
</svg>
