<?xml version="1.0" encoding="UTF-8" standalone="no"?>
<!DOCTYPE svg PUBLIC "-//W3C//DTD SVG 1.1//EN" "http://www.w3.org/Graphics/SVG/1.1/DTD/svg11.dtd">
<svg width="100%" height="100%" viewBox="0 0 167 120" version="1.1" xmlns="http://www.w3.org/2000/svg" xmlns:xlink="http://www.w3.org/1999/xlink" xml:space="preserve" xmlns:serif="http://www.serif.com/" style="fill-rule:evenodd;clip-rule:evenodd;stroke-linejoin:round;stroke-miterlimit:2;">
    <g id="Logo" transform="matrix(0.47975,0,0,0.47975,-496.281,10.6261)">
        <path d="M1335.6,168.215L1274.8,168.215L1256.57,85.273C1255.7,81.8 1254.33,74.899 1252.47,64.57C1250.6,54.24 1249.23,45.603 1248.36,38.658C1247.67,44.3 1246.54,51.31 1244.98,59.687C1243.42,68.063 1241.88,75.767 1240.36,82.799C1238.84,89.83 1232.52,118.302 1221.41,168.215L1160.6,168.215L1113.47,-22.149L1163.08,-22.149L1183.78,73.294C1188.47,94.387 1191.68,111.184 1193.42,123.684C1194.55,114.83 1196.56,102.807 1199.47,87.616C1202.38,72.425 1205.09,59.839 1207.61,49.856L1224.41,-22.149L1272.06,-22.149L1288.34,49.856C1291.12,61.401 1293.94,74.726 1296.8,89.83C1299.67,104.934 1301.58,116.219 1302.53,123.684C1303.66,114.049 1306.74,97.339 1311.78,73.554L1332.87,-22.149L1382.48,-22.149L1335.6,168.215Z" style="fill:rgb(79,70,229);fill-rule:nonzero;"/>
        <path d="M1061.15,227.981C1051.78,227.981 1042.88,227.07 1034.46,225.247L1034.46,185.273C1037.24,185.794 1040.19,186.379 1043.31,187.03C1046.44,187.682 1049.82,188.007 1053.47,188.007C1061.97,188.007 1068.05,185.446 1071.7,180.325C1075.34,175.203 1077.17,166.436 1077.17,154.023L1077.17,-22.149L1128.86,-22.149L1128.86,149.596C1128.86,175.377 1123.22,194.886 1111.93,208.124C1100.65,221.362 1083.72,227.981 1061.15,227.981Z" style="fill:rgb(79,70,229);fill-rule:nonzero;"/>
    </g>
</svg>
